HIERARCHY
ROOT Hips
{
 OFFSET 0.000000 0.000000 0.000000
 CHANNELS 6 Xposition Yposition Zposition Yrotation Xrotation Zrotation
 JOINT Chest
 {
  OFFSET 0.000000 9.585900 0.002600
  CHANNELS 3 Yrotation Xrotation Zrotation
  JOINT Chest2
  {
   OFFSET 0.000000 9.601200 -0.005300
   CHANNELS 3 Yrotation Xrotation Zrotation
   JOINT Chest3
   {
    OFFSET 0.000000 9.561800 0.000000
    CHANNELS 3 Yrotation Xrotation Zrotation
    JOINT Chest4
    {
     OFFSET 0.000000 9.552100 0.000000
     CHANNELS 3 Yrotation Xrotation Zrotation
     JOINT Neck
     {
      OFFSET 0.000000 14.453000 0.000000
      CHANNELS 3 Yrotation Xrotation Zrotation
      JOINT Head
      {
       OFFSET 0.000000 8.936500 -0.011300
       CHANNELS 3 Yrotation Xrotation Zrotation
       End Site
       {
        OFFSET 0.000000 17.073600 -0.006000
       }
      }
     }
     JOINT RightCollar
     {
      OFFSET -2.921100 9.558500 0.000000
      CHANNELS 3 Yrotation Xrotation Zrotation
      JOINT RightShoulder
      {
       OFFSET -13.519700 0.000000 0.000000
       CHANNELS 3 Yrotation Xrotation Zrotation
       JOINT RightElbow
       {
        OFFSET 0.000000 -29.696600 0.000000
        CHANNELS 3 Yrotation Xrotation Zrotation
        JOINT RightWrist
        {
         OFFSET 0.000000 -24.004700 0.000000
         CHANNELS 3 Yrotation Xrotation Zrotation
         End Site
         {
          OFFSET 0.000000 -17.728500 0.000000
         }
        }
       }
      }
     }
     JOINT LeftCollar
     {
      OFFSET 2.921100 9.558500 0.000000
      CHANNELS 3 Yrotation Xrotation Zrotation
      JOINT LeftShoulder
      {
       OFFSET 13.519700 0.000000 0.000000
       CHANNELS 3 Yrotation Xrotation Zrotation
       JOINT LeftElbow
       {
        OFFSET 0.000000 -29.696600 0.000000
        CHANNELS 3 Yrotation Xrotation Zrotation
        JOINT LeftWrist
        {
         OFFSET 0.000000 -24.004700 0.000000
         CHANNELS 3 Yrotation Xrotation Zrotation
         End Site
         {
          OFFSET 0.000000 -17.728500 0.000000
         }
        }
       }
      }
     }
    }
   }
  }
 }
 JOINT RightHip
 {
  OFFSET -7.771700 -0.012900 -0.001300
  CHANNELS 3 Yrotation Xrotation Zrotation
  JOINT RightKnee
  {
   OFFSET 0.000000 -40.869800 0.001200
   CHANNELS 3 Yrotation Xrotation Zrotation
   JOINT RightAnkle
   {
    OFFSET 0.000000 -39.717900 0.002100
    CHANNELS 3 Yrotation Xrotation Zrotation
    JOINT RightToe
    {
     OFFSET 0.000000 -4.965400 11.033500
     CHANNELS 3 Yrotation Xrotation Zrotation
     End Site
     {
      OFFSET 0.000000 -1.423100 5.872300
     }
    }
   }
  }
 }
 JOINT LeftHip
 {
  OFFSET 7.771700 -0.012900 -0.001300
  CHANNELS 3 Yrotation Xrotation Zrotation
  JOINT LeftKnee
  {
   OFFSET 0.000000 -40.869800 0.001200
   CHANNELS 3 Yrotation Xrotation Zrotation
   JOINT LeftAnkle
   {
    OFFSET 0.000000 -39.717900 0.002100
    CHANNELS 3 Yrotation Xrotation Zrotation
    JOINT LeftToe
    {
     OFFSET 0.000000 -4.965400 11.033500
     CHANNELS 3 Yrotation Xrotation Zrotation
     End Site
     {
      OFFSET 0.000000 -1.423100 5.872300
     }
    }
   }
  }
 }
}
MOTION
Frames: 7
Frame Time: 0.008333
0.000000 85.388000 0.000000 0.000000 -5.767877 0.000000 0.000000 11.653817 0.000000 0.000000 -5.885947 0.000000 0.000000 -0.000000 0.000000 0.000000 -0.000000 0.000000 0.000000 12.528835 0.000000 0.000000 0.711642 0.000000 0.000000 -0.000000 0.000000 0.000000 0.000000 -90.000000 0.000000 -2.309062 0.000000 0.000000 2.309062 0.000000 0.000000 -0.000000 0.000000 0.000000 -0.000000 90.000000 0.000000 -2.309062 0.000000 0.000000 2.309062 0.000000 0.000000 8.520406 0.000000 0.000000 1.905762 0.000000 -0.000000 -4.658285 0.000000 0.000000 -0.000000 0.000000 0.000000 8.520406 0.000000 0.000000 1.905762 0.000000 -0.000000 -4.658285 0.000000 0.000000 -0.000000 0.000000
-33.342431 61.887285 22.305103 160.394123 -7.392536 0.181231 2.356078 9.875614 1.446873 0.178949 0.626996 0.115608 0.335887 1.111845 0.195039 2.806752 9.136666 1.910224 -8.333288 9.560751 -1.231152 -9.047692 -15.591736 0.668739 5.916061 -1.874518 -6.023724 22.263285 -13.283417 -28.905556 39.082262 -41.241364 -11.392393 2.442745 -2.069226 -47.764349 -9.631448 -11.297485 -0.241984 -18.557229 -4.212803 15.500243 -58.618210 -40.483945 26.861587 -0.080990 -7.670780 45.570722 -7.591663 -59.479164 6.912140 -17.063786 72.431930 -12.572511 1.103647 -7.605574 -4.021612 0.447792 -0.460749 0.031147 19.566538 -58.500176 -4.825689 30.861403 69.623443 28.751213 -18.185510 -14.453620 3.256574 -0.130669 0.545124 -0.082379
-33.347920 61.890643 22.319508 160.374545 -7.321490 0.178643 2.394064 9.834843 1.445606 0.182808 0.626544 0.115548 0.328316 1.097454 0.199388 2.889546 9.146956 1.914271 -8.396309 9.492790 -1.233771 -9.102235 -15.660363 0.672530 5.939192 -1.914061 -6.008708 22.371167 -13.345193 -28.995346 38.991254 -41.041661 -11.309914 2.447317 -2.012193 -47.687116 -9.641062 -11.306908 -0.227675 -18.628586 -4.278082 15.485436 -58.673865 -40.455644 26.867673 -0.143121 -7.716654 45.524727 -7.540649 -59.538394 6.881970 -16.934862 72.403038 -12.412413 1.107074 -7.582332 -4.004711 0.447030 -0.408718 0.065118 19.576745 -58.571241 -4.928651 31.002640 69.549114 28.970909 -18.107974 -14.423368 3.182988 -0.130540 0.538367 -0.093766
-33.346457 61.895321 22.332208 160.344292 -7.280510 0.137070 2.448193 9.827528 1.489975 0.186317 0.625999 0.115604 0.321973 1.079334 0.200785 2.948022 9.153751 1.921364 -8.432923 9.427559 -1.244394 -9.147573 -15.731127 0.670665 5.981414 -1.947991 -5.998629 22.479992 -13.418653 -29.085306 38.900743 -40.836839 -11.220292 2.450056 -1.956590 -47.608374 -9.641235 -11.312070 -0.219498 -18.691769 -4.310345 15.476877 -58.705334 -40.448561 26.883240 -0.146095 -7.724327 45.511844 -7.546367 -59.557990 6.931676 -16.854263 72.368444 -12.301491 1.129306 -7.548956 -3.986788 0.413688 -0.409359 0.043125 19.539534 -58.628719 -4.917928 31.106328 69.506255 29.109509 -17.964280 -14.409611 3.130320 -0.059358 0.535383 -0.081557
-33.345300 61.900806 22.343102 160.327707 -7.255655 0.093664 2.486715 9.835070 1.533921 0.206674 0.659039 0.114161 0.310870 1.045807 0.203503 2.996116 9.143330 1.930719 -8.466502 9.361110 -1.257484 -9.188901 -15.803312 0.665366 6.023414 -1.981993 -5.986817 22.584735 -13.496638 -29.175769 38.805921 -40.629883 -11.125522 2.448642 -1.903880 -47.527900 -9.641153 -11.311941 -0.209871 -18.753400 -4.349423 15.467266 -58.737673 -40.441129 26.898070 -0.146950 -7.732303 45.498744 -7.568311 -59.566156 6.977561 -16.803104 72.344887 -12.221873 1.165344 -7.504850 -3.928758 0.382924 -0.410312 0.007446 19.478912 -58.672481 -4.895108 31.211658 69.463426 29.249690 -17.835875 -14.388541 3.081488 0.010792 0.523950 -0.072487
-33.350019 61.906136 22.356237 160.294285 -7.212369 0.075101 2.537078 9.824336 1.555028 0.214022 0.656889 0.114527 0.312628 1.047615 0.204317 3.046135 9.133078 1.939799 -8.500440 9.293379 -1.272096 -9.230451 -15.876945 0.658513 6.067439 -2.015673 -5.973813 22.683105 -13.573516 -29.261560 38.706299 -40.421949 -11.035908 2.447581 -1.853604 -47.448343 -9.641828 -11.307368 -0.197004 -18.795480 -4.409432 15.444657 -58.852595 -40.426861 26.953135 -0.127906 -7.729800 45.472746 -7.534564 -59.593112 6.983363 -16.722279 72.310075 -12.112928 1.174656 -7.476109 -3.900293 0.369160 -0.377539 0.027322 19.478045 -58.726260 -4.915717 31.299492 69.421198 29.371312 -17.796322 -14.349959 3.055056 0.061604 0.498784 -0.082416
-33.362516 61.911162 22.370979 160.250619 -7.149944 0.092580 2.617679 9.822470 1.542789 0.187194 0.611299 0.117403 0.356897 1.094069 0.204336 3.027213 9.082613 1.943118 -8.517655 9.259221 -1.279658 -9.251507 -15.914082 0.654869 6.147548 -2.037229 -5.959301 22.780523 -13.649059 -29.340829 38.601390 -40.210334 -10.954220 2.448111 -1.805754 -47.370403 -9.625171 -11.295551 -0.188307 -18.839047 -4.441144 15.434586 -58.928085 -40.418953 27.001024 -0.164370 -7.765056 45.423902 -7.444410 -59.647467 6.930099 -16.642381 72.274844 -12.010555 1.181558 -7.455263 -3.871026 0.355483 -0.347776 0.032275 19.549708 -58.787578 -4.999159 31.364269 69.380934 29.468949 -17.879671 -14.286246 3.059218 -0.003413 0.481016 -0.087270
